<svg id="Layer_1" data-name="Layer 1" xmlns="http://www.w3.org/2000/svg" width="90" height="64.39" viewBox="0 0 90 64.39">
  <defs>
    <style>
      .cls-1 {
        fill: #fff;
      }
    </style>
  </defs>
  <g>
    <path class="cls-1" d="M1.76,57.18A7.39,7.39,0,0,0,9.23,64.7a7.51,7.51,0,1,0,0-15,7.38,7.38,0,0,0-7.45,7.49M9.3,51.64a5.23,5.23,0,0,1,5.37,5.55,5.16,5.16,0,0,1-5.44,5.54A5.55,5.55,0,0,1,9.3,51.64m16.1,9a2.39,2.39,0,0,1-2.65,2.42c-1.42,0-2.81-.54-2.81-2.44V52.84H18.08v7.84c0,2.78,2,4,4.61,4,2.39,0,4.52-1.32,4.52-4.05V52.84H25.4Zm6.48-6.21h2V52.84h-2V50H30v2.85H28.68v1.63H30v9.89h1.85ZM40.12,64.7a4.59,4.59,0,0,0,3.81-2v1.69h1.82V50H43.89v4.37a4.76,4.76,0,0,0-3.9-1.8c-3.36,0-5.46,3-5.46,5.89,0,3.21,2,6.25,5.59,6.25m-3.73-6.27c0-2.19,1.44-4.22,3.75-4.22,2.57,0,3.92,1.65,3.92,4.52,0,2.67-1.5,4.26-3.73,4.26-2.63,0-3.94-2.29-3.94-4.56m11,.19a6.14,6.14,0,0,0,12.27,0,6.14,6.14,0,0,0-12.27,0m6.1-4.35a4.33,4.33,0,0,1,0,8.65,4.23,4.23,0,0,1-4.24-4.26,4.18,4.18,0,0,1,4.21-4.39m7.18,4.35a6.14,6.14,0,0,0,12.27,0,6.14,6.14,0,0,0-12.27,0m6.09-4.35a4.33,4.33,0,0,1,0,8.65,4.23,4.23,0,0,1-4.24-4.26,4.18,4.18,0,0,1,4.2-4.39m12.33.17a4.83,4.83,0,0,1,1.27.24l.45-1.82a4.33,4.33,0,0,0-1.25-.22,3.19,3.19,0,0,0-3,1.83V52.84H74.74V64.36H76.6V58.28c0-1.29.38-3.84,2.46-3.84m2.32,1.27a3.24,3.24,0,0,0,2.07,3c.39.19,1.1.53,1.84.84a2,2,0,0,1,1.29,1.79c0,.95-.71,1.67-2,1.67a2.36,2.36,0,0,1-2.11-1.5l-1.55.82a3.92,3.92,0,0,0,3.69,2.33,3.58,3.58,0,0,0,3.85-3.53A3.52,3.52,0,0,0,86.13,58L85,57.46c-.92-.42-1.78-.85-1.78-1.86a1.48,1.48,0,0,1,1.56-1.44,1.87,1.87,0,0,1,1.74,1.33L88,54.81a3.33,3.33,0,0,0-3.22-2.25,3.2,3.2,0,0,0-3.44,3.15" transform="translate(0 -0.3)"/>
    <path class="cls-1" d="M21.83,45.18c13.59,0,21.39-8.4,21.39-23V20.08H22.53v8.31h9.75l0,.29c-.4,4.12-4.91,7.75-9.65,7.75-7.46,0-11.75-4.81-11.75-13.19,0-8.67,4-13.85,10.76-13.85A12,12,0,0,1,32.1,15.15l8.36-4.6C36.2,3.56,30.23.3,21.72.3,9.34.3,0,10,0,22.8S9.18,45.18,21.83,45.18" transform="translate(0 -0.3)"/>
    <path class="cls-1" d="M66.9,45.18C80.07,45.18,90,35.34,90,22.3,90,10,79.88.3,67,.3c-13.17,0-23.1,9.63-23.1,22.39,0,13,9.7,22.49,23.05,22.49m0-35A12.15,12.15,0,0,1,79.37,22.52c0,7.57-5.15,12.86-12.53,12.86S54.49,30.23,54.49,22.85,59.71,10.16,66.9,10.16" transform="translate(0 -0.3)"/>
  </g>
</svg>
