<svg xmlns="http://www.w3.org/2000/svg" xmlns:xlink="http://www.w3.org/1999/xlink" width="136" height="18" viewBox="0 0 136 18">
    <defs>
        <path id="j64gxjoq3a" d="M0 0.094L14.748 0.094 14.748 8.911 0 8.911z"/>
        <path id="cy1fd9plec" d="M0.1 0.107L9.772 0.107 9.772 18 0.1 18z"/>
        <path id="zgfxjq8afe" d="M0 18L136 18 136 0 0 0z"/>
    </defs>
    <g fill="none" fill-rule="evenodd">
        <g>
            <g>
                <g transform="translate(-56 -1154) translate(-2 1037) translate(58 117)">
                    <g transform="translate(0 5)">
                        <mask id="ffi0ymwfbb" fill="#fff">
                            <use xlink:href="#j64gxjoq3a"/>
                        </mask>
                        <path fill="#1C75BB" d="M13.164 4.596c.598-1.283-.222-1.779-2.167-1.779l-3.253.003c-.707-.001-.856-.057-.699-.388l.234-.494c.143-.32.351-.382 1.06-.383l4.26-.001c.88 0 1.251.112 1.727.29l.422-1.75H6.25C4.629.095 3.37.81 2.726 2.19l-.914 1.97c-.705 1.47-.199 1.907 1.624 1.907l3.737.002c.715 0 .832.068.68.387l-.284.606c-.148.328-.333.382-1.044.383H2.098c-.912 0-1.272-.165-1.642-.33L0 8.912l8.27-.002c2.199-.001 3.228-.777 3.879-2.158l1.015-2.155z" mask="url(#ffi0ymwfbb)"/>
                    </g>
                    <path fill="#1C75BB" d="M36.08 10.083c1.08-.001 1.555.128 2.003.241l.925-1.963c-.554.106-1.146.235-2.222.234h-3.338l.996-2.102 3.803-.002c1.1.002 1.574.122 2.021.238l.433-1.728L30.084 5c.07.355.055.689-.343 1.543l-2.77 5.903c-.254.533-.47.86-.692 1.122-.283-.478-.491-1.023-.628-1.414l-1.492-4.498 3.096-1.767c.883-.51 1.368-.662 2.027-.888l-4.276.002c-.034.115-.06.224-.113.336-.14.3-.369.519-1.11.975l-4.485 2.725 1.169-2.495c.4-.856.714-1.187 1.11-1.543l-5.448.004c.073.353.065.684-.338 1.54l-2.772 5.905c-.399.853-.708 1.186-1.107 1.55h5.438c-.057-.364-.056-.698.34-1.552l.64-1.348 1.54-.916.95 3.814 15.84-.004 1.238-1.733c-.534.11-1.129.238-2.214.239h-4.068l1.14-2.417h3.324zM51.102 11.815s-1.486.337-3.35.336c0 0-1.822.005-2.2 0-.476-.003-.622-.13-.44-.572.178-.443 1.992-4.225 1.992-4.225.064-.137.291-.51.876-.51h3.45c.858-.002 1.627.28 1.627.28l.549-2.07-.028.002.016-.056-7.392.001c-2.01 0-3.453.702-4.37 2.646l-1.745 3.71c-.916 1.931-.125 2.643 1.87 2.643l7.589-.003 1.556-2.182zM64.612 12.447l2.78-5.907c.398-.852.714-1.185 1.104-1.54l-5.452.003c.067.353.064.685-.341 1.539l-.963 2.057h-3.5l.972-2.055c.406-.857.713-1.19 1.115-1.542l-5.457.003c.067.353.06.683-.35 1.54l-2.772 5.907c-.406.85-.717 1.188-1.12 1.548l5.457-.002c-.063-.36-.06-.696.351-1.548l1.113-2.363 3.489-.001-1.11 2.364c-.403.85-.714 1.187-1.112 1.548h5.448c-.065-.36-.057-.697.348-1.55M70.306 12.503l1.134-2.416h3.347c1.072-.003 1.56.126 2.003.238l.928-1.962c-.56.107-1.15.236-2.222.235h-3.355l.996-2.106 3.824-.001c1.104 0 1.577.123 2.027.238L79.416 5l-10.65.003c.064.354.056.686-.35 1.542L65.64 12.45c-.408.854-.724 1.19-1.114 1.55l10.839-.002 1.24-1.734c-.525.114-1.134.242-2.228.24h-4.071zM89.32 6.993l-.515 1.1c-.206.436-.414.505-1.025.506h-2.671l1.014-2.105 2.66-.002c.605-.002.75.064.536.501zm1.362 3.092c1.036-.05 1.96-.123 2.59-1.443l.782-1.657C94.77 5.477 93.95 5 91.784 5l-10.192.001c.182.357.175.686-.234 1.544l-2.8 5.907c-.405.852-.715 1.187-1.127 1.548l5.504-.002c-.064-.36-.06-.696.346-1.547l1.118-2.364 1.457-.002.39 3.913h5.287c-.253-.34-.259-.808-.367-1.38l-.484-2.533zM99.579 6.886c.154-.327.352-.392 1.07-.394l4.25.001c.885.002 1.241.116 1.723.297l.59-1.79-8.662.004c-1.614 0-2.864.73-3.514 2.139l-.91 2.01c-.701 1.5-.195 1.947 1.622 1.947h3.732c.708-.001.836.069.68.397l-.284.617c-.148.334-.328.39-1.052.39l-4.418.002c-.893 0-1.27-.169-1.643-.337L92.321 14l8.247-.001c2.2-.002 3.23-.796 3.883-2.206l1.01-2.196c.603-1.308-.214-1.815-2.166-1.813h-3.247c-.715 0-.86-.054-.7-.395l.23-.503zM105.056 12.94h.11c.138 0 .245-.044.245-.16 0-.093-.067-.163-.226-.163-.058 0-.098 0-.129.003v.32zm0 .64h-.234v-1.11c.088-.013.185-.03.354-.03.19 0 .305.03.38.087.063.05.097.124.097.24 0 .133-.092.226-.212.258v.008c.098.017.159.107.178.27.022.174.043.24.06.276h-.241c-.027-.04-.046-.138-.068-.288-.017-.12-.088-.17-.208-.17h-.106v.458zm.168-1.38c-.415 0-.751.358-.751.802 0 .448.336.798.756.798.42.005.761-.35.761-.798 0-.444-.34-.803-.76-.803h-.006zm.009-.2c.549 0 .986.447.986.998 0 .56-.437 1.002-.99 1.002-.55 0-.995-.443-.995-1.002 0-.55.446-.998.995-.998h.004z"/>
                    <g transform="translate(109.197)">
                        <mask id="1wxg038m6d" fill="#fff">
                            <use xlink:href="#cy1fd9plec"/>
                        </mask>
                        <path fill="#262261" d="M6.588.209c.049 0 .049.025.049.025h.049c.024-.05-.098-.05-.098-.025-.024.025 0 .025 0 0zM6.443.183c-.025 0-.025-.05-.098 0 .025.026 0 .05.025.05 0-.024.073-.024.073-.05zm-.292 0c-.048-.05-.048.026-.073.026 0-.026-.025-.026-.073-.026v.05c.073 0 .146.026.146-.05zm-.316 0c-.073.102.17.076.146.026-.049.05-.073 0-.146-.026zm-.122.102c-.024-.026.05-.026.05-.051-.147 0-.293 0-.414.05.121.102.267-.025.364 0zM5.276.36c-.024-.075-.073 0-.146.026.073 0 .146.025.146-.026zm-.243 0c-.073 0-.049.05-.073.076.073 0 .073-.025.073-.076zm-.267 8.72h.048-.048zM4.693.511c.121-.025.194.025.243-.101h-.049c-.048-.025-.048 0 0 0 0 .1-.194 0-.194.1zm-.195 0c-.17.076-.388.076-.461.177.17.025.316-.101.461-.127h.146c0-.126-.121-.05-.146 0v-.05zm-.461 8.92c-.073 0-.073.026-.122.051.097 0 .097-.025.122-.05zM3.769.84c.025-.025.146-.025.243-.05V.689c-.121.025-.121.1-.194 0v.025c-.024.025-.146.101-.049.126zm-.145 8.845c0-.025 0-.025.024-.05-.024 0-.024 0-.049-.025 0 .025-.024.025-.024.05.024 0 .024.025.049.025zm-.195.076h.048v-.025H3.43v.025zm-.145-8.718s-.05-.026 0-.051c.024 0 .072.025 0 .05zm.947 8.289c.122.05.122-.253.267-.253-.024 0-.048.076 0 .076 0-.025.025-.025.025-.076h-.025c0-.05.025-.076.122-.05v.05c.024 0 .048-.025.048-.05H4.62c.024-.051.073-.102.146-.026-.025-.101.073-.152.121-.076-.048-.076.024-.1.073-.151.437-.051.535-.354.875-.506 0 .026.024 0 0 0 .097-.1.292-.126.365-.278 0 .026.024.026.048.026 0-.102.048-.152.097-.177.778-.48 1.385-1.112 1.92-1.87.268-.582.51-1.213.656-1.972.049-.328.098-.783.073-1.162-.17-.733-.802-1.188-1.555-1.365-1.021-.126-2.09.228-3.11.48-.025.102-.122.127-.17.228.242.126.437.328.51.58-.05.684-.219 1.543-.486 2.124 0 .05.048.05.024.1-.122.203-.146.532-.243.708-.219 1.037-.535 1.997-.68 2.932-.098.152-.098.404-.195.556.048.025.048.101.048.126-.097.127-.145.43-.12.531.437-.202.874-.455 1.311-.657-.024.126-.097.101-.097.152zM3.284.992c-.147 0-.22.278-.34.127 0 .05.072.075 0 .126.12-.05.242-.076.29-.152.05.05.147-.05.195-.076.048 0 .292-.126.243-.202-.024.076-.073 0-.146 0 .049.177-.097.025-.145.127.048 0 0 .05.048.075-.121 0-.121-.151-.145-.025zm-.365.278c-.049 0-.073 0-.122.05.073 0 .098-.025.122-.05zm-.705.607c.049 0 0-.026 0 0-.073 0 0 .075 0 0zm.34-.455c-.243.076-.486.379-.729.455 0 .177-.218.151-.243.328-.048 0-.121.05-.145.101-.025.026 0 .026 0 0 .097 0 .121-.05.145-.101.243-.177.438-.354.73-.556.096 0 .121-.101.17-.151.096-.051.364-.076.291-.228-.146 0-.146.126-.219.152 0-.026-.048 0 0 0zm-1.142.935c-.097 0-.097.05-.121.1.048 0 .097-.075.12-.1zm1.507-1.314c.073.05.097-.101.121 0 .17-.228.632-.228.85-.48.025 0 .025.075.074.075.243-.126.534-.126.632-.278.072.05.218.026.364-.1.17 0 .56-.026.68-.153.025 0 .05.026.073.076.365-.1.851-.076 1.361 0 1.313.304 1.92 1.466 2.503 2.578-.024.202.146.354.122.607.097.404.048.96.073 1.39-.073.328-.073.758-.195 1.036-.145 1.086-.704 1.845-1.166 2.653-.073 0-.073-.05-.098 0-.048 0-.023.101-.023.127-.827.884-1.75 1.516-2.723 2.148-.145-.05-.218.075-.364.075-.243.228-.68.304-.826.506-.024 0-.049 0-.049-.025-.534.379-1.118.48-1.7.631-.195.758-.317 1.517-.414 2.452 0 .076 0 .076-.024.1-.122 1.037-.365 2.351.073 3.261 0 .05.072 0 .072.05-.024.152-.267.101-.291.228-.024-.076-.17-.05-.267-.05C.318 17.67.56 15.952.586 14.69c0-.051.024-.051.073-.077.024-.884.194-1.794.364-2.704-.121-.252-.291-.455-.485-.606-.22-.48-.414-1.062-.438-1.567.121-.152.024-.43.268-.38 0 .127-.147.178-.147.33.097-.051.097-.076.195-.076-.098.151-.025.354-.048.48.145.278.655.404.923.202.389-2.502.996-5.18 1.725-7.531-.51.228-.996.657-1.434.96-.243.127-.291.455-.243.708-.048-.076-.072-.101-.17-.05-.048-.076-.072-.203-.194-.253-.17-.38-.316-.809-.243-1.29.17-.201.365-.378.51-.631.025.05.025.05.025.101.048-.101.145-.354.315-.278.049-.101.195-.253.34-.278.049-.126.244-.202.268-.177.17-.252.388-.278.68-.43.073 0-.024-.05.049-.1z" mask="url(#1wxg038m6d)"/>
                    </g>
                    <mask id="cdt7sd8ozf" fill="#fff">
                        <use xlink:href="#zgfxjq8afe"/>
                    </mask>
                    <path fill="#262261" d="M119.954 2.24h.06v-.077h-.06v.077zm-.117.356c0 .05-.03.153-.058.255.087-.05.175-.255.058-.255zm-.146.05h.088v-.05h-.088v.05zm0 .51c0 .077-.03.153-.059.23.088 0 .176-.23.058-.23zm-.088.51c.058.025.058-.102.029-.102 0 .05-.03.05-.03.05v.052zm.029.102c0-.051 0-.102-.03-.077 0 .026-.058.026-.058.077h.088zm-.118-.51c.03 0 .089 0 .089-.025-.06 0-.089 0-.089.025zm.03.56c0 .052-.03.154-.059.255.118 0 .147-.229.059-.254zm-.059.255c0 .077-.03.153-.03.23.06 0 .148-.23.03-.23zm-.117-.05c-.059.101-.059.229-.088.356.088 0 .176-.306.088-.356zm.088.305c-.147.23-.147.586-.206.84.177-.127.177-.636.206-.84zm-.264.968h.088v-.05h-.088v.05zm-.03-.28h.03v-.102h-.03v.102zm.088-.56c0 .076-.058.076-.058.101-.059 0-.03-.102.058-.102zm-.146.84c-.117 0-.03-.153.03-.127 0 .025-.03.025-.03.127zm-.117.204c0-.051.03-.051.03-.127.116-.026.058.127-.03.127zm-.03.28c-.029 0 0-.077-.029-.102.147 0 .029.076.029.102zm0 .305c-.117.026-.029.128-.058.179.088 0 .058-.102.058-.179zm-.117 1.427c.117-.586.235-1.197.322-1.834.088-.051.088-.178.088-.28-.088.05-.117.254-.088.28-.175.637-.322 1.146-.322 1.834zm.059-1.222c0 .101-.088.076-.06.152.118 0 .118-.152.06-.152zm-.088 1.247c.029.102-.088.204-.03.28.03-.076.147-.203.03-.28zm-.03-.662c-.03.026-.03.127.03.127.029-.076.029-.076-.03-.127zm-.029.433h.03v-.076h-.03v.076zm.03.535c0 .102-.147.305 0 .382-.06-.178.146-.306 0-.382zm-.03-.178c0-.051-.088-.051 0-.077-.117-.05-.147.077-.088.102 0-.025.059-.025.088-.025zm-.03.56c-.087.28-.146.484-.087.764 0-.28.117-.484.088-.764zm0-.484h-.087c-.03.102-.03.153-.03.23.147-.026.059-.179.118-.23zm-.146 1.936c0-.102.03-.153 0-.23h.03c-.06-.228.117-.382 0-.433 0 .128-.118.28-.03.433-.03 0-.117.23 0 .23zm-.03-1.401c-.058 0-.058-.051 0-.051 0 .026.03.026 0 .05zm0-.178c.03 0 .03.05.03.127h-.03c-.058-.077-.058-.077 0-.127zm-.058 1.706c0 .026-.058.153.059.23 0-.128.058-.153-.059-.23zm0 .255c0 .076-.058.05-.03.127.118.026.118-.127.03-.127zm0 .178c-.03.102-.088.255-.03.331.03-.127.089-.203.03-.33zm0-1.579c0 .025 0 .077-.058.051v-.102c.029.051.029.051.058.051zm-.03.407c-.087 0 0-.05-.028-.152.029-.051.058.127.029.152zm0 1.529c-.058.076-.087.254-.028.305 0-.101.117-.229.029-.305zm-.087 1.222h.03v-.05h-.03v.05zm0-.84c.03 0 .059 0 .059-.026-.03 0-.06 0-.06.026zm0 .534c.03.102-.059.077 0 .128.059.076.059-.128 0-.128zm0-.356c0 .128-.059.255 0 .331.03-.076.117-.28 0-.33zm0 .79c.03.025-.088.102 0 .127.03-.025.059-.127 0-.127zm-.059-2.013s.059-.025.059-.101c.03 0 .03.152-.059.101zm-.088 2.802c0-.025.03.051.03 0 0-.025-.03-.025-.03 0zm0-.611c.03.077 0 .102.03.127.029-.05.029-.076-.03-.127zm.03-.076c.029-.077-.147-.102 0-.102 0-.051-.118-.025-.118-.051-.029-.077.088-.128 0-.128.059-.101.088 0 .118 0 .029-.101-.118-.05-.06-.127.089 0 .06-.128.089-.178-.147 0 0 .127-.088.127-.059-.102-.088-.229.059-.255-.147-.076-.03-.178.029-.305 0-.026-.03.025-.059 0 .03-.026 0-.128.059-.05-.03-.129-.088-.281-.059-.409.147 0 0 .077.059.102.03-.025.03-.076.088-.127-.059-.026-.117-.102-.147-.026-.117-.076.088-.025.059-.102.03 0 .03.026.088.026.059-.051-.088-.051-.117-.102.117-.077-.06-.23.117-.23-.059.077-.088.179 0 .256.03-.103.088-.28-.059-.306.059-.077.088-.102.118-.153-.06-.127-.118-.23-.06-.331.03.025.03.077.06.102.058 0 .029-.153-.06-.102v-.23c.06 0 .06.077.03.102.147 0 .059-.127.059-.152-.03 0-.03 0-.03.025-.029-.025-.058-.127-.029-.178.059.025.03.025.03.077.146-.103.146-.484.117-.765-.059.051 0 .127-.117.127.058-.05.058-.127.058-.228.059 0 .059.025.059.076.117-.051.03-.306.088-.382-.176-.128-.059-.51.146-.56-.058-.051-.058 0-.146-.026 0-.076.117-.025.117-.102-.03-.026-.03.026-.117 0 .029-.026 0-.076-.03-.076 0-.051.118-.051.059-.128.059 0 .059.026.059.051.088-.076-.088-.305.029-.458.088 0-.03.102.03.127.117-.025.058-.127.058-.178-.03-.077-.03.05-.088.026-.03-.103.03-.103.147-.103-.235-.152-.06-.382.029-.61h.059v-.077c-.059 0-.059.051-.059.076-.088-.025 0-.152 0-.203.029 0 .029.025.029.101.06-.05.147-.305.06-.356.116-.05.116-.23.087-.255.058 0 .088-.127.03-.127 0-.026.028-.077.028-.102-.029-.026-.029 0-.087 0 .029-.077.058-.178.058-.28.03-.026.059.05.117-.026-.117-.025-.088-.153-.058-.204h.117c0-.076 0-.153-.117-.127.117-.178.058-.433.235-.484-.06 0-.06-.076-.088-.102.029-.025.117-.025.146-.076-.03-.051-.03-.077-.058-.077v-.127c.058-.025.029.05.058.102.059-.026.03-.178.059-.255-.088-.025 0 .102-.088.077.03-.179.088-.306.088-.484.059 0 .088.025.088.025.058-.025.029-.101.058-.152-.058 0-.087.025-.087.076.029-.179 0-.408.176-.535 0-.102-.118-.077-.089-.153.03 0 .089.025.118.025-.088-.101-.03-.178.029-.305h.059c-.03-.025-.06 0-.06 0-.028-.025 0-.255.06-.255 0-.051-.03-.076 0-.153.146-.305.117-.713.293-.967-.059-.204.117-.408 0-.586.058 0 .117.025.176.076.47-.229 1.085 0 1.525.051.058.05.058.178.176.204.029.433.088.891-.06 1.197-.204 1.681-.585 3.464-.996 5.043 0 .025 0 .076.03.076-.147.408-.089.994-.294 1.452 0 .484-.234 1.019-.176 1.477-.146.204 0 .739-.205.943.03 1.044-.323 2.623.235 3.668.498-.179.674-.663 1.143-.918 0 .026 0 .026.03.026-.06.128.117.28-.03.407 0 .051.03-.076.088-.025-.176.178.059.356-.088.637h.088c0 .05-.059.05-.088.127.03.025.03-.05.088 0 0 .153-.176.179-.234.23 0 .025.029.025.058.025-.264.204-.762.28-1.173.28 0-.05-.117-.025-.117-.05-.586-.18-1.232-.332-1.613-.689-.205-.254-.469-.61-.44-.968-.117-.178-.029-.458-.176-.636.059 0 .088 0 .088-.025-.117-.204 0-.383-.03-.586h.06zM127.41 6.393c0 .026-.028.079-.028.105.055.053.055-.105.028-.105zm-.028.315c-.028 0-.11.105-.028.13.028-.025.028-.052.028-.13.028 0 .028-.026.028-.026.082-.027-.028-.131 0 0-.028 0-.028 0-.028.026zm-.166-.289h.028v-.052h-.028v.052zm-.138 5.82c0-.052-.027-.052-.055-.078 0 .053.028.053.055.079zm-.165-.21c.027.027.082.054.082.132-.055-.026-.082-.078-.082-.131zm-.083-4.613c.027-.079.027-.21.11-.21-.027.079-.055.157-.11.21zm0 4.483c0-.027-.055-.027 0-.053 0 0 .027.026 0 .053zm-.055-.996h.055-.055zm-.111.288c0 .026-.056.026-.083.026 0-.026.027-.026.083-.026zm-.056-.21c0 .053-.027 0-.054.053 0-.053.027-.053.054-.053zm-.414-2.595c.194-.341.387-.655.636-.97-.166.367-.387.681-.636.97zm-.138.183c0-.13.11-.13.11-.183h.028c0 .078-.083.157-.138.183zm-.69.734h.055v-.052h-.055v.052zm-.138.42c.276-.393.552-.734.8-1.154h.028c-.22.446-.497.813-.828 1.154zm-.525.918c.083-.289.414-.499.47-.76-.25.366-.553.628-.747 1.022.166-.027.139-.236.277-.262zm-.332.262h.055c.028.078-.055.052-.027.13-.11 0-.028-.078-.028-.13zm-.027.157c-.083 0-.166.078-.11.157.027-.079.055-.105.11-.157zm-.415-.813c-.055-.157.083-.367.083-.55.055.104-.083.34-.083.55zm-.055 1.31c.055 0 .193-.183.249-.288h.055s.028-.052 0-.052c-.055.026-.055.026-.055.052-.11.08-.166.184-.249.289zm-.773-4.298c-.056 0-.056.052-.083.104.056 0 .056-.052.083-.104zm-.083.34c-.055 0-.083 0-.083.026.028 0 .083 0 .083-.026zm-.138-.603c0 .027 0 .053.055.053 0-.026-.028-.053-.055-.053zm-.028-.262c.028.052 0 .105.028.105.027-.026.055-.131-.028-.105zm.083.944c-.028.157-.193.393-.138.55.083-.157.166-.393.138-.55zm-.166.577l-.027.026c.055.078.11-.026.027-.026zm-.055.34v.08c.055.025.055-.106 0-.08zm-.138.577c.028.027 0 .079.028.079 0-.052.083-.052-.028-.079zm0 .446c0-.053 0-.105-.055-.105v.052c.027 0 .027.053.055.053zm-.055.026c0 .131-.11.288-.055.394 0-.08.138-.342.055-.394zm-.083.498c0 .027-.028.131 0 .131s.11-.157 0-.13zm-.331 1.127c.082.027.082.08.027.105.055 0 .083-.026.055-.105.055.184.055.577.249.709-.331-.604-.138-1.783-.083-2.465.193-.891.249-1.599.552-2.386-.055-.078-.055.132-.11.158 0-.184-.028-.446 0-.656.055-.052.083 0 .055.053.332-.158.718-.131 1.05-.184.22.053.359.184.524.34-.055 1.679-.8 3.173-.662 4.694.607-.498.967-1.232 1.464-1.81.027.106-.028.106 0 .21.331-.471.718-.865.966-1.415.139-.079.332-.236.332-.472.082.026 0-.131.138-.079-.056-.026-.083-.026-.083-.079.083.027.083-.104.138 0 .056-.052-.055-.078-.027-.13.083.026.138-.158.165-.289.056-.026.028.026.083.026-.083-.183.221-.34.249-.629-.11.105-.138.262-.249.34.138-.366.387-.628.497-1.021-.027-.027 0-.132-.083-.132.028-.13.194.105.166-.052.193.026.249.079.497 0 .083.079.332.052.414.052.139.105.277.21.388.184-.084.157.11.262.193.315.165.576-.249 1.074-.166 1.494-.304 1.154-.663 2.7-.525 3.985.056.105.166.157.332.157.055.131.193.289.248.446-.027.34-.359.34-.663.367-.47-.157-.69-.498-1.132-.708-.276-.472-.58-1.206-.414-1.966-.857.865-1.354 2.202-2.68 2.595-.414-.052-.828-.157-1.077-.393-.055-.052-.166-.21-.304-.34-.11-.105-.248-.132-.331-.21-.083-.158-.056-.289-.11-.368 0-.052.082-.104 0-.157 0-.079-.111-.052-.083-.184z" mask="url(#cdt7sd8ozf)"/>
                    <path fill="#262261" d="M134.925 5.797c.028.051 0 .076.055.076 0-.05-.027-.05-.055-.076zm.028-.506c-.083.101-.083.405.027.456 0-.152.028-.355-.027-.456zm-1.488-.709c.056.026.083 0 .083-.05-.055 0-.055 0-.083.05-.027.026.028.026 0 0zm-.11-.152c0-.05.028-.05.028-.075-.027 0-.027-.026-.055-.026v.101h.028zm-.055.253c-.082 0-.082 0-.11.051.083 0 .11 0 .11-.05.028 0 .028-.026.028-.026.055-.025 0-.025 0 0 0 0-.028 0-.028.025zm-.027-.151c0 .05-.11 0-.083.076.028 0 .138-.026.083-.076zm.027-.152c-.11.05-.193.076-.247.152.11-.026.22-.051.247-.152zm-.303.303c.056.051.11 0 .056-.025-.028 0-.056 0-.056.025-.11 0 0 .127 0 0zm-.193 0c.083-.025.166-.075.22-.1-.027-.051-.027-.051-.054-.051 0-.026-.028 0 0 0-.028.076-.138.076-.166.151zm.138.051c-.11.025-.138.05-.165.076.083.025.11-.025.165-.076zm-.275.177c-.056 0-.11 0-.11.026.082 0 .082 0 .11-.026zm-.193-.025h.055c.028-.05.028-.076-.028-.076 0 0 0 .025-.027 0v.076zm.055.05c-.028.026-.082.026-.082.102.054 0 .082-.05.082-.101zm-.248 7.62h.028v-.05h-.028v.05zm-.22-7.29c-.028 0-.056 0-.056.025.028 0 .056 0 .056-.025zm-.11-.076c-.083 0-.139.076-.083.101-.028-.05.11-.025.082-.101zm-.22.101c-.029.076-.083.076-.083.127.054 0 .192-.076.082-.127zm-.029 7.367c0 .025-.054.025-.082.025.028-.025.054-.025.082-.025zm-.082-6.987c.054-.127.192-.127.248-.253.11 0 0-.076 0 0-.138.076-.303.152-.248.253zm-.083-.228c0 .05-.027.076 0 .101 0-.025.028-.05 0-.101zm-.055.278c-.083 0-.11.076-.137.102.11 0 .11-.076.137-.102.028 0 .028 0 .028-.025.027 0 0-.025 0 0l-.028.025zm-.137-.076v.026c-.056 0 0 .025 0 0v-.026c.027 0 .027 0 .027-.05.083 0 .11 0 .11-.05-.083 0-.083.025-.11.05 0 0-.027 0-.027.05zm-.11 7.09c0 .05-.028.05-.028.05 0-.05.027-.05.027-.05zM131.123 6c.055-.026.22-.127.193-.177-.028.05-.11.076-.165.076 0 .05 0 .075-.028.1zm0-.152c0-.05.11 0 .083-.101.11 0 0-.076 0 0-.028 0-.166.05-.083.101zm-.055.025c-.028-.025-.083-.025-.083.026.055.05.083 0 .083-.026zm-.193 5.24c.028-.075.083-.1.138-.1-.028.025-.028.1-.138.1zm-.33 1.596c-.028.025-.056.076-.056.1.056 0 .083-.1.056-.1zm-.194-6.05c.276-.203.496-.406.717-.634-.248.177-.523.405-.717.633-.11 0 0 .101 0 0zm-.11-.153c0-.05.056-.1.138-.1 0 .024 0 .05-.028.075-.054-.025-.054.025-.11.025zm-.247.532c-.083 0-.083.05-.11.076.11 0 .082-.05.11-.076zm-.138.152c-.028 0-.028.025-.028.05-.11 0 0 .102 0 0 .028 0 .028-.025.028-.05.027 0 .027 0 .027-.025.028 0 0-.051 0 0-.027 0-.027.025-.027.025zm-.028-.178c-.027.026-.138.102-.027.102-.055-.05.11-.076.027-.102zm-.11.153c.028 0 0-.051 0 0-.028.025 0 .025 0 0zm-.165 5.063c-.028 0-.028.025-.028.025-.027 0 0-.025-.027-.05.055 0 .055 0 .055.025zm1.487-.76c0 .026.028.026.028 0 .11 0 .11-.05.165-.05-.11.177-.386.253-.523.506-.028.025 0 .025 0 0 .083-.026.137-.102.248-.102-.083.076-.138.153-.248.203.083.076.027.05 0 .152-.028 0-.028 0-.028.025 0 .026.028 0 .028-.025.083.05-.193.228-.193.38.11-.05.028.228.138.329.854.05 1.46-.405 1.9-.506.055 0 .083 0 .083-.026.386-.227.744-.532 1.074-.86.056.075.056 0 0 0 .083-.127.22-.051.22-.228.028 0 .028-.05.028-.076.028 0 0-.026 0 0-.028 0-.028.025-.028.076-.137.025.028-.102.028-.152 0-.076-.137 0-.192-.051-1.075-.38-2.48-.405-3.417-.937-.275-.202-.495-.455-.715-.683-.11-.355-.414-.658-.496-.962-.083-.026.027-.026.027-.051-.027-.025-.082 0-.082-.101 0-.025 0-.025.055 0-.055-.608.275-.785.44-1.215.276-.152.331-.481.661-.608 0 .076-.055.05-.055.127.11-.026.138-.076.165-.152.056.076.056-.076.11-.076.084 0 .084-.101.11-.127.056 0 .056-.025.056-.025.028 0 .055-.05.055-.076v-.025c.055 0 0-.026 0 0v.025c-.027.025-.055.025-.055.076-.055 0-.055 0-.055.025-.083 0-.055.051-.11.127-.055 0-.055-.05-.055-.05.496-.507 1.102-.937 1.735-1.368.028-.025.028-.05.028-.101.22-.05.358-.203.523-.278.083 0 .028.075.028.126.11-.253.55-.506.909-.532 0 .127-.193.026-.193.127.083.026.193 0 .275-.101 0-.076-.192-.026-.192-.152 0-.076.082.076.137.05.055 0-.027-.076 0-.126.028.025.193.076.22 0 .662.228 2.04.076 2.122 1.063-.166.177-.193.532-.359.76-.11.025 0-.076-.054-.076-.083 0-.055.076-.055.101-.028 0-.028-.025-.028-.05-.055 0-.028.1-.055.151-.028 0-.028-.05-.028-.076-.055.026-.055.127-.11.152-.027-.025 0-.152-.027-.152-.083.101-.11.101-.165.152-.028 0-.028-.025-.028-.076-.083 0-.055.102-.083.152-.055-.076-.165-.127-.193.025-.055-.253.055-.455.028-.734-1.543.734-2.81 1.773-3.94 2.887-.11.278-.275.48-.44.733.027.127 0 .178-.055.279.248.177.744.304 1.102.304 1.432.304 2.7.708 3.526 1.544.165.279.413.481.303.836-.166.683-1.075 1.29-1.736 1.493-.578.33-1.294.481-2.121.532-.083-.076-.193-.076-.358-.076-.826-.152-1.157-.81-1.625-1.342.055-.076-.083-.101-.138-.202.055-.05.138.025.165.05.028-.076.11-.202.055-.253.441-.456.937-.886 1.598-1.14 0 .077.028.102.055.127 0 .102-.082.102-.165.127.055.05.11-.025.138.025 0 .102-.083.102-.138.152h-.028zm-1.955-3.215c-.056.026-.028-.076-.028-.127.028.026.028.102.028.127zm0-.177c-.056.05-.028-.127-.028-.152.028-.076.028.101.028.152z" mask="url(#cdt7sd8ozf)"/>
                </g>
            </g>
        </g>
    </g>
</svg>
